{
    "asset" : {
        "generator" : "Khronos glTF Blender I/O v1.3.48",
        "version" : "2.0"
    },
    "scene" : 0,
    "scenes" : [
        {
            "name" : "Scene",
            "nodes" : [
                0,
                1,
                2,
                3
            ]
        }
    ],
    "nodes" : [
        {
            "mesh" : 0,
            "name" : "Helico"
        },
        {
            "mesh" : 1,
            "name" : "Helice",
            "translation" : [
                0.048155710101127625,
                2.4264588356018066,
                -0.6401601433753967
            ]
        },
        {
            "mesh" : 2,
            "name" : "Helice.001",
            "rotation" : [
                0,
                0,
                -0.7068771719932556,
                0.7073363065719604
            ],
            "translation" : [
                0.12874020636081696,
                1.1809203624725342,
                -7.386155128479004
            ]
        },
        {
            "mesh" : 3,
            "name" : "Portes"
        }
    ],
    "materials" : [
        {
            "doubleSided" : true,
            "emissiveFactor" : [
                0,
                0,
                0
            ],
            "name" : "BaseMaterial",
            "pbrMetallicRoughness" : {
                "baseColorFactor" : [
                    0.5925777554512024,
                    0.03996111452579498,
                    0.0332915261387825,
                    1
                ],
                "metallicFactor" : 0,
                "roughnessFactor" : 0.4000000059604645
            }
        },
        {
            "doubleSided" : true,
            "emissiveFactor" : [
                0,
                0,
                0
            ],
            "name" : "Metal",
            "pbrMetallicRoughness" : {
                "baseColorFactor" : [
                    0.13286346197128296,
                    0.13286346197128296,
                    0.13286346197128296,
                    1
                ],
                "metallicFactor" : 0,
                "roughnessFactor" : 0.5
            }
        },
        {
            "doubleSided" : true,
            "emissiveFactor" : [
                0,
                0,
                0
            ],
            "name" : "SecondMaterial",
            "pbrMetallicRoughness" : {
                "baseColorFactor" : [
                    0.800000011920929,
                    0.800000011920929,
                    0.800000011920929,
                    1
                ],
                "metallicFactor" : 0,
                "roughnessFactor" : 0.5
            }
        },
        {
            "doubleSided" : true,
            "emissiveFactor" : [
                0,
                0,
                0
            ],
            "name" : "Glass",
            "pbrMetallicRoughness" : {
                "baseColorFactor" : [
                    0.03559878468513489,
                    0.06954554468393326,
                    0.8000000715255737,
                    1
                ],
                "metallicFactor" : 0,
                "roughnessFactor" : 0.5
            }
        }
    ],
    "meshes" : [
        {
            "name" : "Cube",
            "primitives" : [
                {
                    "attributes" : {
                        "POSITION" : 0,
                        "NORMAL" : 1,
                        "TEXCOORD_0" : 2
                    },
                    "indices" : 3,
                    "material" : 0
                },
                {
                    "attributes" : {
                        "POSITION" : 4,
                        "NORMAL" : 5,
                        "TEXCOORD_0" : 6
                    },
                    "indices" : 7,
                    "material" : 1
                },
                {
                    "attributes" : {
                        "POSITION" : 8,
                        "NORMAL" : 9,
                        "TEXCOORD_0" : 10
                    },
                    "indices" : 11,
                    "material" : 2
                },
                {
                    "attributes" : {
                        "POSITION" : 12,
                        "NORMAL" : 13,
                        "TEXCOORD_0" : 14
                    },
                    "indices" : 15,
                    "material" : 3
                }
            ]
        },
        {
            "name" : "Cube.003",
            "primitives" : [
                {
                    "attributes" : {
                        "POSITION" : 16,
                        "NORMAL" : 17,
                        "TEXCOORD_0" : 18
                    },
                    "indices" : 19,
                    "material" : 1
                }
            ]
        },
        {
            "name" : "Cube.004",
            "primitives" : [
                {
                    "attributes" : {
                        "POSITION" : 20,
                        "NORMAL" : 21,
                        "TEXCOORD_0" : 22
                    },
                    "indices" : 19,
                    "material" : 1
                }
            ]
        },
        {
            "name" : "Cube.005",
            "primitives" : [
                {
                    "attributes" : {
                        "POSITION" : 23,
                        "NORMAL" : 24,
                        "TEXCOORD_0" : 25
                    },
                    "indices" : 26,
                    "material" : 0
                },
                {
                    "attributes" : {
                        "POSITION" : 27,
                        "NORMAL" : 28,
                        "TEXCOORD_0" : 29
                    },
                    "indices" : 30,
                    "material" : 3
                },
                {
                    "attributes" : {
                        "POSITION" : 31,
                        "NORMAL" : 32,
                        "TEXCOORD_0" : 33
                    },
                    "indices" : 34,
                    "material" : 1
                }
            ]
        }
    ],
    "accessors" : [
        {
            "bufferView" : 0,
            "componentType" : 5126,
            "count" : 1386,
            "max" : [
                1.397641658782959,
                2.3395984172821045,
                2.3049838542938232
            ],
            "min" : [
                -1.397641658782959,
                -1.9918967485427856,
                -7.527182102203369
            ],
            "type" : "VEC3"
        },
        {
            "bufferView" : 1,
            "componentType" : 5126,
            "count" : 1386,
            "type" : "VEC3"
        },
        {
            "bufferView" : 2,
            "componentType" : 5126,
            "count" : 1386,
            "type" : "VEC2"
        },
        {
            "bufferView" : 3,
            "componentType" : 5123,
            "count" : 2136,
            "type" : "SCALAR"
        },
        {
            "bufferView" : 4,
            "componentType" : 5126,
            "count" : 576,
            "max" : [
                1.0902447700500488,
                1.8409901857376099,
                2.3049838542938232
            ],
            "min" : [
                -1.0902447700500488,
                -0.919725239276886,
                -7.524436950683594
            ],
            "type" : "VEC3"
        },
        {
            "bufferView" : 5,
            "componentType" : 5126,
            "count" : 576,
            "type" : "VEC3"
        },
        {
            "bufferView" : 6,
            "componentType" : 5126,
            "count" : 576,
            "type" : "VEC2"
        },
        {
            "bufferView" : 7,
            "componentType" : 5123,
            "count" : 864,
            "type" : "SCALAR"
        },
        {
            "bufferView" : 8,
            "componentType" : 5126,
            "count" : 152,
            "max" : [
                1.4204823970794678,
                0.14574183523654938,
                2.227099657058716
            ],
            "min" : [
                -1.4204823970794678,
                -1.206051230430603,
                -7.4632768630981445
            ],
            "type" : "VEC3"
        },
        {
            "bufferView" : 9,
            "componentType" : 5126,
            "count" : 152,
            "type" : "VEC3"
        },
        {
            "bufferView" : 10,
            "componentType" : 5126,
            "count" : 152,
            "type" : "VEC2"
        },
        {
            "bufferView" : 11,
            "componentType" : 5123,
            "count" : 228,
            "type" : "SCALAR"
        },
        {
            "bufferView" : 12,
            "componentType" : 5126,
            "count" : 80,
            "max" : [
                0.7918725609779358,
                0.7845243215560913,
                2.064256429672241
            ],
            "min" : [
                -0.7918725609779358,
                -0.4689057469367981,
                1.245903491973877
            ],
            "type" : "VEC3"
        },
        {
            "bufferView" : 13,
            "componentType" : 5126,
            "count" : 80,
            "type" : "VEC3"
        },
        {
            "bufferView" : 14,
            "componentType" : 5126,
            "count" : 80,
            "type" : "VEC2"
        },
        {
            "bufferView" : 15,
            "componentType" : 5123,
            "count" : 120,
            "type" : "SCALAR"
        },
        {
            "bufferView" : 16,
            "componentType" : 5126,
            "count" : 294,
            "max" : [
                4.113008975982666,
                0.25926148891448975,
                3.9384844303131104
            ],
            "min" : [
                -4.113008975982666,
                -0.25926148891448975,
                -3.9384844303131104
            ],
            "type" : "VEC3"
        },
        {
            "bufferView" : 17,
            "componentType" : 5126,
            "count" : 294,
            "type" : "VEC3"
        },
        {
            "bufferView" : 18,
            "componentType" : 5126,
            "count" : 294,
            "type" : "VEC2"
        },
        {
            "bufferView" : 19,
            "componentType" : 5123,
            "count" : 564,
            "type" : "SCALAR"
        },
        {
            "bufferView" : 20,
            "componentType" : 5126,
            "count" : 294,
            "max" : [
                0.7672495245933533,
                0.1225929781794548,
                0.8114920854568481
            ],
            "min" : [
                -0.7672495245933533,
                -0.1225929781794548,
                -0.8114920854568481
            ],
            "type" : "VEC3"
        },
        {
            "bufferView" : 21,
            "componentType" : 5126,
            "count" : 294,
            "type" : "VEC3"
        },
        {
            "bufferView" : 22,
            "componentType" : 5126,
            "count" : 294,
            "type" : "VEC2"
        },
        {
            "bufferView" : 23,
            "componentType" : 5126,
            "count" : 398,
            "max" : [
                1.5579264163970947,
                1.321258544921875,
                0.39225271344184875
            ],
            "min" : [
                -1.508516788482666,
                -0.820136547088623,
                -1.323276400566101
            ],
            "type" : "VEC3"
        },
        {
            "bufferView" : 24,
            "componentType" : 5126,
            "count" : 398,
            "type" : "VEC3"
        },
        {
            "bufferView" : 25,
            "componentType" : 5126,
            "count" : 398,
            "type" : "VEC2"
        },
        {
            "bufferView" : 26,
            "componentType" : 5123,
            "count" : 606,
            "type" : "SCALAR"
        },
        {
            "bufferView" : 27,
            "componentType" : 5126,
            "count" : 12,
            "max" : [
                1.3808906078338623,
                0.9049603939056396,
                -0.39340952038764954
            ],
            "min" : [
                -1.3993189334869385,
                -0.03245905041694641,
                -0.9717230796813965
            ],
            "type" : "VEC3"
        },
        {
            "bufferView" : 28,
            "componentType" : 5126,
            "count" : 12,
            "type" : "VEC3"
        },
        {
            "bufferView" : 29,
            "componentType" : 5126,
            "count" : 12,
            "type" : "VEC2"
        },
        {
            "bufferView" : 30,
            "componentType" : 5123,
            "count" : 24,
            "type" : "SCALAR"
        },
        {
            "bufferView" : 31,
            "componentType" : 5126,
            "count" : 66,
            "max" : [
                1.5579264163970947,
                1.321258544921875,
                0.39225271344184875
            ],
            "min" : [
                1.1339256763458252,
                -0.8043642044067383,
                -1.3166228532791138
            ],
            "type" : "VEC3"
        },
        {
            "bufferView" : 32,
            "componentType" : 5126,
            "count" : 66,
            "type" : "VEC3"
        },
        {
            "bufferView" : 33,
            "componentType" : 5126,
            "count" : 66,
            "type" : "VEC2"
        },
        {
            "bufferView" : 34,
            "componentType" : 5123,
            "count" : 102,
            "type" : "SCALAR"
        }
    ],
    "bufferViews" : [
        {
            "buffer" : 0,
            "byteLength" : 16632,
            "byteOffset" : 0
        },
        {
            "buffer" : 0,
            "byteLength" : 16632,
            "byteOffset" : 16632
        },
        {
            "buffer" : 0,
            "byteLength" : 11088,
            "byteOffset" : 33264
        },
        {
            "buffer" : 0,
            "byteLength" : 4272,
            "byteOffset" : 44352
        },
        {
            "buffer" : 0,
            "byteLength" : 6912,
            "byteOffset" : 48624
        },
        {
            "buffer" : 0,
            "byteLength" : 6912,
            "byteOffset" : 55536
        },
        {
            "buffer" : 0,
            "byteLength" : 4608,
            "byteOffset" : 62448
        },
        {
            "buffer" : 0,
            "byteLength" : 1728,
            "byteOffset" : 67056
        },
        {
            "buffer" : 0,
            "byteLength" : 1824,
            "byteOffset" : 68784
        },
        {
            "buffer" : 0,
            "byteLength" : 1824,
            "byteOffset" : 70608
        },
        {
            "buffer" : 0,
            "byteLength" : 1216,
            "byteOffset" : 72432
        },
        {
            "buffer" : 0,
            "byteLength" : 456,
            "byteOffset" : 73648
        },
        {
            "buffer" : 0,
            "byteLength" : 960,
            "byteOffset" : 74104
        },
        {
            "buffer" : 0,
            "byteLength" : 960,
            "byteOffset" : 75064
        },
        {
            "buffer" : 0,
            "byteLength" : 640,
            "byteOffset" : 76024
        },
        {
            "buffer" : 0,
            "byteLength" : 240,
            "byteOffset" : 76664
        },
        {
            "buffer" : 0,
            "byteLength" : 3528,
            "byteOffset" : 76904
        },
        {
            "buffer" : 0,
            "byteLength" : 3528,
            "byteOffset" : 80432
        },
        {
            "buffer" : 0,
            "byteLength" : 2352,
            "byteOffset" : 83960
        },
        {
            "buffer" : 0,
            "byteLength" : 1128,
            "byteOffset" : 86312
        },
        {
            "buffer" : 0,
            "byteLength" : 3528,
            "byteOffset" : 87440
        },
        {
            "buffer" : 0,
            "byteLength" : 3528,
            "byteOffset" : 90968
        },
        {
            "buffer" : 0,
            "byteLength" : 2352,
            "byteOffset" : 94496
        },
        {
            "buffer" : 0,
            "byteLength" : 4776,
            "byteOffset" : 96848
        },
        {
            "buffer" : 0,
            "byteLength" : 4776,
            "byteOffset" : 101624
        },
        {
            "buffer" : 0,
            "byteLength" : 3184,
            "byteOffset" : 106400
        },
        {
            "buffer" : 0,
            "byteLength" : 1212,
            "byteOffset" : 109584
        },
        {
            "buffer" : 0,
            "byteLength" : 144,
            "byteOffset" : 110796
        },
        {
            "buffer" : 0,
            "byteLength" : 144,
            "byteOffset" : 110940
        },
        {
            "buffer" : 0,
            "byteLength" : 96,
            "byteOffset" : 111084
        },
        {
            "buffer" : 0,
            "byteLength" : 48,
            "byteOffset" : 111180
        },
        {
            "buffer" : 0,
            "byteLength" : 792,
            "byteOffset" : 111228
        },
        {
            "buffer" : 0,
            "byteLength" : 792,
            "byteOffset" : 112020
        },
        {
            "buffer" : 0,
            "byteLength" : 528,
            "byteOffset" : 112812
        },
        {
            "buffer" : 0,
            "byteLength" : 204,
            "byteOffset" : 113340
        }
    ],
    "buffers" : [
        {
            "byteLength" : 113544,
            "uri" : "data:application/octet-stream;base64,"
        }
    ]
}
