# Blender v2.90.0 OBJ File: 'Helico01.blend'
# www.blender.org
mtllib SmallRock.mtl
o Rock_Small_01_Icosphere.001
v -0.036274 -0.101672 0.018410
v 0.164598 -0.075476 0.139813
v -0.095065 -0.030634 0.203525
v -0.309195 0.044708 0.045831
v -0.095861 -0.026091 -0.140953
v 0.162125 -0.073774 -0.098038
v 0.087268 0.080863 0.291320
v -0.178126 0.119657 0.138653
v -0.180050 0.122188 -0.070681
v 0.082259 0.080049 -0.139475
v 0.249832 0.086795 0.035877
v 0.051421 0.153457 0.140619
vt 0.818181 0.000000
vt 0.727272 0.157461
vt 0.909090 0.157461
vt 0.636363 0.000000
vt 0.545454 0.157461
vt 0.090909 0.000000
vt 0.000000 0.157461
vt 0.181818 0.157461
vt 0.272727 0.000000
vt 0.363636 0.157461
vt 0.454545 0.000000
vt 0.636363 0.314921
vt 0.818181 0.314921
vt 0.090909 0.314921
vt 0.272727 0.314921
vt 0.454545 0.314921
vt 1.000000 0.314921
vt 0.727272 0.472382
vt 0.909090 0.472382
vt 0.181818 0.472382
vt 0.363636 0.472382
vt 0.545454 0.472382
vn -0.0800 -0.9389 0.3349
vn 0.1344 -0.9909 -0.0085
vn -0.4487 -0.8727 0.1924
vn -0.4780 -0.8493 -0.2241
vn -0.1031 -0.9131 -0.3945
vn 0.8819 -0.4713 -0.0125
vn 0.0624 -0.6785 0.7320
vn -0.5871 0.0247 0.8091
vn -0.6626 -0.0214 -0.7487
vn 0.1254 -0.1969 -0.9724
vn 0.8404 -0.1004 0.5325
vn -0.4839 0.1074 0.8685
vn -0.5044 0.8634 0.0151
vn -0.1894 0.3306 -0.9246
vn 0.7072 0.1832 -0.6829
vn 0.4428 0.8444 0.3014
vn -0.1335 0.8801 0.4557
vn -0.1458 0.9892 0.0133
vn 0.0914 0.9657 -0.2430
vn 0.1999 0.9530 -0.2277
usemtl Rock
s off
f 1/1/1 2/2/1 3/3/1
f 2/2/2 1/4/2 6/5/2
f 1/6/3 3/7/3 4/8/3
f 1/9/4 4/8/4 5/10/4
f 1/11/5 5/10/5 6/5/5
f 2/2/6 6/5/6 11/12/6
f 3/3/7 2/2/7 7/13/7
f 4/8/8 3/7/8 8/14/8
f 5/10/9 4/8/9 9/15/9
f 6/5/10 5/10/10 10/16/10
f 2/2/11 11/12/11 7/13/11
f 3/3/12 7/13/12 8/17/12
f 4/8/13 8/14/13 9/15/13
f 5/10/14 9/15/14 10/16/14
f 6/5/15 10/16/15 11/12/15
f 7/13/16 11/12/16 12/18/16
f 8/17/17 7/13/17 12/19/17
f 9/15/18 8/14/18 12/20/18
f 10/16/19 9/15/19 12/21/19
f 11/12/20 10/16/20 12/22/20
